<?xml version="1.0" standalone="no"?><!DOCTYPE svg PUBLIC "-//W3C//DTD SVG 1.1//EN" "http://www.w3.org/Graphics/SVG/1.1/DTD/svg11.dtd"><svg class="icon" width="36px" height="36.00px" viewBox="0 0 1024 1024" version="1.1" xmlns="http://www.w3.org/2000/svg"><path fill="#62B900" d="M760.468 960.75H264.067c-60.878 0-110.334-52.256-110.334-116.596V494.639c0-64.249 49.457-116.503 110.334-116.503h28.624c-2.932-14.533-4.507-29.5-4.507-44.819V288.5c0-123.772 100.313-224.083 224.084-224.083 123.727 0 224.086 100.311 224.086 224.083v44.816c0 15.319-1.577 30.286-4.509 44.819h28.623c60.834 0 110.334 52.254 110.334 116.503v349.516c0 64.34-49.5 116.596-110.334 116.596zM467.451 679.598v101.889c0 24.682 20.091 44.816 44.817 44.816s44.816-20.135 44.816-44.816V679.598c27.177-15.406 45.689-44.117 45.689-77.381 0-49.545-40.525-89.633-90.506-89.633-50.025 0-90.553 40.088-90.553 89.633 0.001 33.263 18.557 61.974 45.737 77.381zM646.716 288.5c0-74.272-60.173-134.451-134.448-134.451-74.27 0-134.452 60.179-134.452 134.451v89.635h268.9V288.5z" /></svg>