<?xml version="1.0" standalone="no"?><!DOCTYPE svg PUBLIC "-//W3C//DTD SVG 1.1//EN" "http://www.w3.org/Graphics/SVG/1.1/DTD/svg11.dtd"><svg t="1562232169892" class="icon" viewBox="0 0 1024 1024" version="1.1" xmlns="http://www.w3.org/2000/svg" p-id="6408" xmlns:xlink="http://www.w3.org/1999/xlink" width="200" height="200"><defs><style type="text/css"></style></defs><path d="M522.598 368.619c-54.236 53.909-55.543 98.017-57.177 149.314-0.653 27.118-1.633 54.889-10.781 83.642-18.95 60.117-66.326 114.353-132.651 152.254a446.472 446.472 0 0 1-189.174 56.85c21.237 0.653-29.731 6.534-82.334 6.534H36.432c-20.388-0.27-36.698-17.02-36.428-37.412 0.27-20.388 17.02-36.698 37.408-36.427h0.327c98.344 0.98 183.946-17.317 247.331-53.583 50.316-28.752 85.602-67.958 98.997-110.433 5.881-18.95 6.535-39.534 7.188-63.385 1.633-55.543 3.594-124.809 78.74-199.628 75.147-74.82 172.838-109.126 307.775-109.126h5.881V141.15c0-20.91 14.703-29.078 32.346-17.969l157.808 97.69c17.97 11.109 17.97 29.405 0.327 40.841L815.67 363.977c-17.643 11.435-32.019 3.594-32.019-17.317v-65.93h-5.881c-115.007 0.327-193.748 27.118-255.172 87.889z" fill="#007AFF" p-id="6409"></path><path d="M559.274 416.645c-54.236 53.909-55.543 98.017-57.177 149.314-0.653 27.118-1.633 54.889-10.781 83.642-18.95 60.117-66.326 114.353-132.651 152.254a446.458 446.458 0 0 1-189.174 56.85c21.237 0.653-29.731 6.534-82.334 6.534H73.108c-20.388-0.27-36.698-17.02-36.428-37.412 0.27-20.388 17.02-36.698 37.408-36.427h0.327c98.344 0.98 183.946-17.317 247.331-53.583 50.316-28.752 85.602-67.958 98.997-110.433 5.881-18.95 6.535-39.534 7.188-63.385 1.633-55.543 3.594-124.809 78.74-199.628S679.51 255.243 814.446 255.243h5.881v-66.066c0-20.91 14.703-29.078 32.346-17.969l157.808 97.69c17.97 11.109 17.97 29.405 0.327 40.841L852.347 412.004c-17.643 11.435-32.019 3.594-32.019-17.317v-65.931h-5.881c-115.008 0.327-193.748 27.119-255.173 87.889z" fill="#007AFF" opacity=".1" p-id="6410"></path><path d="M38.065 281.057h-0.327C17.35 281.147 0.746 264.69 0.657 244.298c-0.09-20.388 16.366-36.991 36.754-37.081 74.82-0.654 142.779 8.495 202.569 27.445 54.563 17.644 101.285 42.801 138.532 75.474a36.95 36.95 0 0 1-11.875 63.767 36.948 36.948 0 0 1-36.807-8.225c-64.365-55.87-167.936-86.255-291.765-84.621z" fill="#007AFF" p-id="6411"></path><path d="M974.458 757.421c17.969 11.109 17.969 29.405 0.327 40.84L816.324 900.527c-17.644 11.435-32.019 3.594-32.019-17.317v-65.999h-5.881c-122.522 0-221.193-38.88-301.567-118.928a36.178 36.178 0 0 1-9.801-25.158 37.031 37.031 0 0 1 21.984-33.732 37.013 37.013 0 0 1 39.766 6.287c66.979 66.326 146.373 97.365 249.618 97.365h5.881v-65.672c0-20.91 14.703-29.078 32.345-17.969l157.808 98.017z" fill="#FC7265" p-id="6412"></path></svg>