<?xml version="1.0" standalone="no"?><!DOCTYPE svg PUBLIC "-//W3C//DTD SVG 1.1//EN" "http://www.w3.org/Graphics/SVG/1.1/DTD/svg11.dtd"><svg class="icon" width="36px" height="36.00px" viewBox="0 0 1024 1024" version="1.1" xmlns="http://www.w3.org/2000/svg"><path fill="#62B900" d="M694.116269 958.178899 321.433268 958.178899c-51.474348 0-93.096305-44.052309-93.096305-95.142917L228.336964 156.342768c0-51.147914 41.621956-92.523253 93.096305-92.523253l372.681978 0c51.364855 0 93.122911 41.37534 93.122911 92.523253l0 709.201337C787.23918 916.693042 745.481124 958.178899 694.116269 958.178899L694.116269 958.178899zM507.789607 896.386554c17.083074 0 31.003108-13.70207 31.003108-30.729885 0-17.141402-13.920034-30.949896-31.003108-30.949896-17.194614 0-31.114648 13.808494-31.114648 30.949896C476.673935 882.684484 490.593969 896.386554 507.789607 896.386554L507.789607 896.386554zM569.879734 94.66094 445.668781 94.66094l0 30.758538 124.211976 0L569.880757 94.66094 569.879734 94.66094zM725.1204 156.342768 290.42709 156.342768l0 616.681154 434.69331 0L725.1204 156.342768 725.1204 156.342768z" /></svg>